<?xml version="1.0" encoding="utf-8"?>
<!-- Generator: Adobe Illustrator 24.0.2, SVG Export Plug-In . SVG Version: 6.00 Build 0)  -->
<svg version="1.1" id="a5daebb5-dfc9-484a-9f95-ea2bbadd0c20"
	 xmlns="http://www.w3.org/2000/svg" xmlns:xlink="http://www.w3.org/1999/xlink" x="0px" y="0px" viewBox="0 0 767 496.5"
	 style="enable-background:new 0 0 767 496.5;" xml:space="preserve">
<style type="text/css">
	.st0{fill:#A0616A;}
	.st1{fill:#2F2E41;}
	.st2{fill:#FFC200;}
	.st3{fill:#FFFFFF;}
	.st4{fill:#E6E6E6;}
</style>
<path class="st0" d="M550.9,135.1l-3.6,27.6l-2.1,16.8l-1.6,12.5l-47.1,48.4l-13.8,9c-5,3.2-11.6,1.8-14.8-3.2
	c-3.2-5-1.8-11.7,3.2-14.9c0.7-0.5,1.5-0.8,2.3-1.1l15.1-5.3l31.9-41.9l1.5-8.2l19-64.7c1.9-3.3,3.2,8.7,5.9,6c0.8,0.9,6.2-10,6.9-9
	C560.4,115.8,552.3,123.7,550.9,135.1z"/>
<polygon class="st0" points="559.1,471.6 544.4,471.6 544.4,327.4 577.8,326.7 "/>
<polygon class="st0" points="629.8,471.6 644.5,471.6 644.5,327.4 611.1,326.7 "/>
<ellipse class="st0" cx="577.1" cy="57" rx="24.7" ry="24.9"/>
<path class="st0" d="M619.1,92.8l-4,24.3l-46.7,2.7V90.5c9.6-4.2,7.5-10.3,0-17.3l30-8.8c1.1,10,2.9,19.4,11.2,21.7
	c3.6,0.9,6.8,3.1,9.1,6.1L619.1,92.8z"/>
<path class="st1" d="M650.5,330.7l-48.4,1.7l-6-37.8l-8.3,36.1l-49.4,1.3l4-66.1l92.7-22.2C646.1,271.4,651.3,301,650.5,330.7z"/>
<path class="st1" d="M552.2,491.7l-31.2-0.3c-5.4,1.4-10.9-2-12.3-7.5c-0.2-0.8-0.3-1.6-0.3-2.5l0,0c0-3.9,2.2-7.5,5.8-9.2l7.1-3.5
	l23.1-16l16.7,4.7l3.2,14.5C566.2,480.8,560.8,489.5,552.2,491.7z"/>
<path class="st1" d="M636.2,491.5l-31.2-0.3c-5.4,1.4-10.9-2-12.3-7.5c-0.2-0.8-0.3-1.6-0.3-2.5l0,0c0-3.9,2.2-7.5,5.8-9.2l7.1-3.5
	l23.1-16l16.7,4.7l3.2,14.5C650.3,480.6,644.9,489.4,636.2,491.5z"/>
<path class="st1" d="M566.4,47.8c-9,6.3-20.7-2.4-17.5-13c2.7-8.7,9.4-17.2,25.5-16.9c32.7,0.7,36.9,33.7,26.1,46.9
	c0,0-1.4-20.6-4.8-17.2c-3.3,3.4-8.7,1.3-8.7,1.3s2.7-12.8-10-7.4C573.3,43.2,569.7,45.3,566.4,47.8z"/>
<path class="st2" d="M637.8,249.2c-26.7,21.9-58.3,29.8-96.1,20.2c9.6-48.8,7.7-100.7,0-154.1c0-7.2,4-13.7,10.4-16.9l16.9-8.3
	c15,21.6,28.8,16.1,42-4l18.7,6.9c5.2,1.9,8.7,6.9,8.6,12.5C635.9,159.7,634.3,211.3,637.8,249.2z"/>
<path class="st2" d="M556.4,187.8l-8.3-1.7l-2.9-0.6l-23.3-4.9l-10.8-2.3l18.3-54c2.3-6.7,6-12.8,11-17.7c3.9-3.9,8.4-7,13.4-9.2
	v0.1L556.4,187.8z"/>
<path class="st0" d="M643.8,242.4l-7.8,22.4c-2.1,5.9,1,12.5,6.9,14.6c0.9,0.3,1.9,0.5,2.9,0.6l0,0c6.2,0.5,11.7-4.2,12.1-10.5
	c0,0,0-0.1,0-0.1l1.9-27l-2-74.2l-20.7,2L643.8,242.4z"/>
<path class="st2" d="M670.5,166.9l-44,12.8l-0.7-88.3l0,0c14.4,0.8,26.6,10.7,30.5,24.7L670.5,166.9z"/>
<path class="st2" d="M113.3,133.2c-2.5,0-4.4,2-4.5,4.5v94c0,2.5,2,4.5,4.5,4.5h361.2c2.5,0,4.5-2,4.5-4.5v-94c0-2.5-2-4.5-4.5-4.5
	H113.3z"/>
<path class="st3" d="M474.5,492.2H113.3c-4.1,0-7.4-3.4-7.4-7.5v-346c0-4.1,3.3-7.5,7.4-7.5h361.2c4.1,0,7.4,3.4,7.4,7.5v346
	C481.9,488.9,478.6,492.2,474.5,492.2z M113.3,134.2c-2.5,0-4.4,2-4.5,4.5v346c0,2.5,2,4.5,4.5,4.5h361.2c2.5,0,4.5-2,4.5-4.5v-346
	c0-2.5-2-4.5-4.5-4.5H113.3z"/>
<path id="a412c548-e719-4eea-a05b-cd0e7020a11d" class="st4" d="M229.5,274.9c-3.2,0.1-5.8,2.8-5.8,6c0.1,3.2,2.6,5.8,5.8,5.8h201.9
	c3.2,0.1,5.9-2.6,6-5.8c0.1-3.3-2.5-6-5.8-6l0,0c-0.1,0-0.1,0-0.2,0H229.5z"/>
<path id="b78b0a84-c378-4508-9336-e77aabaafae0" class="st4" d="M229.5,305.9c-3.2,0.1-5.8,2.8-5.8,6c0.1,3.2,2.6,5.8,5.8,5.8h201.9
	c3.2,0.1,5.9-2.6,6-5.8c0.1-3.3-2.5-6-5.8-6c-0.1,0-0.1,0-0.2,0H229.5z"/>
<path id="e32b0e90-8114-4582-9747-2684e16f8e14" class="st4" d="M229.5,336.9c-3.2,0.1-5.8,2.8-5.8,6c0.1,3.2,2.6,5.8,5.8,5.8h201.9
	c3.2,0,5.9-2.6,6-5.9c0-3.3-2.5-6-5.8-6c-0.1,0-0.1,0-0.2,0H229.5z"/>
<path id="b06bb5c2-a5f4-47ff-92f8-77ef735fdd34" class="st4" d="M229.5,367.9c-3.2,0.1-5.8,2.8-5.8,6c0.1,3.2,2.6,5.8,5.8,5.8h201.9
	c3.2,0,5.9-2.6,6-5.9c0-3.3-2.5-6-5.8-6c-0.1,0-0.1,0-0.2,0H229.5z"/>
<path id="b8811759-8962-48e4-84dc-33129b489fa6" class="st4" d="M229.5,398.9c-3.2,0.1-5.8,2.8-5.8,6c0.1,3.2,2.6,5.8,5.8,5.8h201.9
	c3.2,0,5.9-2.6,6-5.9c0-3.3-2.5-6-5.8-6c-0.1,0-0.1,0-0.2,0H229.5z"/>
<path id="b77aa8cf-94af-4633-82e9-cca59aedf566" class="st4" d="M229.5,429.9c-3.2,0.1-5.8,2.8-5.8,6c0.1,3.2,2.6,5.8,5.8,5.8h201.9
	c3.2,0,5.9-2.6,6-5.9c0-3.3-2.5-6-5.8-6c-0.1,0-0.1,0-0.2,0H229.5z"/>
<path class="st3" d="M184,184.7c0,13.3-10.6,24-23.7,24s-23.7-10.7-23.7-24s10.6-24,23.7-24c13.1-0.1,23.7,10.6,23.7,23.8
	C184,184.6,184,184.7,184,184.7z"/>
<path id="ebe986c1-6388-4a4d-87c0-ea526f0f496e" class="st3" d="M202.8,165.8c-3.2,0.1-5.8,2.8-5.8,6c0.1,3.2,2.6,5.8,5.8,5.8h147.5
	c3.2,0,5.9-2.6,6-5.9c0-3.3-2.5-6-5.8-6c-0.1,0-0.1,0-0.2,0H202.8z"/>
<path id="a7d58542-4d48-481b-9cd8-4bec86616530" class="st3" d="M202.8,191.8c-3.2,0.1-5.8,2.8-5.8,6c0.1,3.2,2.6,5.8,5.8,5.8h242.5
	c3.2,0,5.9-2.6,6-5.9c0-3.3-2.5-6-5.8-6c-0.1,0-0.1,0-0.2,0H202.8z"/>
<path class="st4" d="M191.6,291.9c-6,0-10.9-4.9-10.9-11s4.9-11,10.9-11s10.9,4.9,10.9,11l0,0C202.5,287,197.6,291.9,191.6,291.9z
	 M191.6,271.9c-4.9,0-8.9,4-8.9,9s4,9,8.9,9c4.9,0,8.9-4,8.9-9C200.5,275.9,196.5,271.9,191.6,271.9z"/>
<path class="st4" d="M191.6,322.9c-6,0-10.9-4.9-10.9-11s4.9-11,10.9-11s10.9,4.9,10.9,11l0,0C202.5,318,197.6,322.9,191.6,322.9z
	 M191.6,302.9c-4.9,0-8.9,4-8.9,9s4,9,8.9,9c4.9,0,8.9-4,8.9-9C200.5,306.9,196.5,302.9,191.6,302.9z"/>
<path class="st4" d="M191.6,353.9c-6,0-10.9-4.9-10.9-11s4.9-11,10.9-11s10.9,4.9,10.9,11l0,0C202.5,349,197.6,353.9,191.6,353.9z
	 M191.6,333.9c-4.9,0-8.9,4-8.9,9s4,9,8.9,9c4.9,0,8.9-4,8.9-9C200.5,337.9,196.5,333.9,191.6,333.9z"/>
<path class="st4" d="M191.6,384.9c-6,0-10.9-4.9-10.9-11s4.9-11,10.9-11s10.9,4.9,10.9,11l0,0C202.5,380,197.6,384.9,191.6,384.9z
	 M191.6,364.9c-4.9,0-8.9,4-8.9,9s4,9,8.9,9c4.9,0,8.9-4,8.9-9C200.5,368.9,196.5,364.9,191.6,364.9z"/>
<path class="st4" d="M191.6,415.9c-6,0-10.9-4.9-10.9-11s4.9-11,10.9-11s10.9,4.9,10.9,11C202.5,411,197.6,415.9,191.6,415.9z
	 M191.6,395.9c-4.9,0-8.9,4-8.9,9s4,9,8.9,9c4.9,0,8.9-4,8.9-9C200.5,399.9,196.5,395.9,191.6,395.9z"/>
<path class="st4" d="M191.6,446.9c-6,0-10.9-4.9-10.9-11s4.9-11,10.9-11s10.9,4.9,10.9,11C202.5,442,197.6,446.9,191.6,446.9z
	 M191.6,426.9c-4.9,0-8.9,4-8.9,9s4,9,8.9,9c4.9,0,8.9-4,8.9-9C200.5,430.9,196.5,426.9,191.6,426.9z"/>
<ellipse class="st2" cx="191.6" cy="280.9" rx="4.9" ry="5"/>
<ellipse class="st2" cx="191.6" cy="342.9" rx="4.9" ry="5"/>
<ellipse class="st2" cx="191.6" cy="373.9" rx="4.9" ry="5"/>
</svg>
