<?xml version="1.0" encoding="utf-8"?>
<!-- Generator: Adobe Illustrator 24.0.2, SVG Export Plug-In . SVG Version: 6.00 Build 0)  -->
<svg version="1.1" id="a5daebb5-dfc9-484a-9f95-ea2bbadd0c20"
	 xmlns="http://www.w3.org/2000/svg" xmlns:xlink="http://www.w3.org/1999/xlink" x="0px" y="0px" viewBox="0 0 767 496.5"
	 style="enable-background:new 0 0 767 496.5;" xml:space="preserve">
<style type="text/css">
	.st0{fill:#BABABA;}
	.st1{fill:#A0616A;}
	.st2{fill:#2F2E41;}
	.st3{fill:#FFC91F;}
	.st4{fill:#FFC200;}
	.st5{fill:#7B7B7C;}
	.st6{fill:none;stroke:#2F2E41;stroke-miterlimit:10;}
	.st7{fill:#DBD1D1;}
</style>
<path class="st0" d="M467.5,480.9c0-15.1,0.1-31.3,105.6-31.3s109.8,6.6,103.8,20c-7.7,17.1-4.3,30.5-109.7,30.5
	S467.5,496,467.5,480.9z"/>
<path class="st1" d="M546.2,128.2l-3.6,27.6l-2.1,16.8l-1.6,12.5l-47.1,48.4l-13.8,9c-5,3.2-11.6,1.8-14.8-3.2
	c-3.2-5-1.8-11.7,3.2-14.9c0.7-0.5,1.5-0.8,2.3-1.1l15.1-5.3l31.9-41.9l1.5-8.2l19-64.7c1.9-3.3,3.2,8.7,5.9,6c0.8,0.9,6.2-10,6.9-9
	C555.7,109,547.6,116.9,546.2,128.2z"/>
<polygon class="st1" points="554.4,464.8 539.7,464.8 539.7,320.5 573.1,319.9 "/>
<polygon class="st1" points="625.1,464.8 639.8,464.8 639.8,320.5 606.4,319.9 "/>
<ellipse class="st1" cx="572.4" cy="50.2" rx="24.7" ry="24.9"/>
<path class="st1" d="M614.4,85.9l-4,24.3l-46.7,2.7V83.7c9.6-4.2,7.5-10.3,0-17.3l30-8.8c1.1,10,2.9,19.4,11.2,21.7
	c3.6,0.9,6.8,3.1,9.1,6.1L614.4,85.9z"/>
<path class="st2" d="M645.8,323.9l-48.4,1.7l-6-37.8l-8.3,36.1l-49.4,1.3l4-66.1l92.7-22.2C641.4,264.6,646.6,294.2,645.8,323.9z"/>
<path class="st2" d="M547.5,484.9l-31.2-0.3c-5.4,1.4-10.9-2-12.3-7.5c-0.2-0.8-0.3-1.6-0.3-2.5l0,0c0-3.9,2.2-7.5,5.8-9.2l7.1-3.5
	l23.1-16l16.7,4.7l3.2,14.5C561.5,474,556.1,482.7,547.5,484.9z"/>
<path class="st2" d="M631.5,484.7l-31.2-0.3c-5.4,1.4-10.9-2-12.3-7.5c-0.2-0.8-0.3-1.6-0.3-2.5l0,0c0-3.9,2.2-7.5,5.8-9.2l7.1-3.5
	l23.1-16l16.7,4.7l3.2,14.5C645.6,473.8,640.2,482.5,631.5,484.7z"/>
<path class="st2" d="M561.7,41c-9,6.3-20.7-2.4-17.5-13c2.7-8.7,9.4-17.2,25.5-16.9c32.7,0.7,36.9,33.7,26.1,46.9
	c0,0-1.4-20.6-4.8-17.2c-3.3,3.4-8.7,1.3-8.7,1.3s2.7-12.8-10-7.4C568.6,36.4,565,38.5,561.7,41z"/>
<path class="st3" d="M633.1,242.3c-26.7,21.9-58.3,29.8-96.1,20.2c9.6-48.8,7.7-100.7,0-154.1c0-7.2,4-13.7,10.4-16.9l16.9-8.3
	c15,21.6,28.8,16.1,42-4l18.7,6.9c5.2,1.9,8.7,6.9,8.6,12.5C631.2,152.9,629.6,204.5,633.1,242.3z"/>
<path class="st3" d="M551.7,181l-8.3-1.7l-2.9-0.6l-23.3-4.9l-10.8-2.3l18.3-54c2.3-6.7,6-12.8,11-17.7c3.9-3.9,8.4-7,13.4-9.2v0.1
	L551.7,181z"/>
<path class="st1" d="M639.1,235.6l-7.8,22.4c-2.1,5.9,1,12.5,6.9,14.6c0.9,0.3,1.9,0.5,2.9,0.6l0,0c6.2,0.5,11.7-4.2,12.1-10.5
	c0,0,0-0.1,0-0.1l1.9-27l-2-74.2l-20.7,2L639.1,235.6z"/>
<path class="st3" d="M665.8,160.1l-44,12.8l-0.7-88.3l0,0c14.4,0.8,26.6,10.7,30.5,24.7L665.8,160.1z"/>
<path class="st4" d="M108.6,126.4c-2.5,0-4.4,2-4.5,4.5v94c0,2.5,2,4.5,4.5,4.5h361.2c2.5,0,4.5-2,4.5-4.5v-94c0-2.5-2-4.5-4.5-4.5
	H108.6z"/>
<path class="st5" d="M469.8,485.4H108.6c-4.1,0-7.4-3.4-7.4-7.5v-346c0-4.1,3.3-7.5,7.4-7.5h361.2c4.1,0,7.4,3.4,7.4,7.5v346
	C477.2,482.1,473.9,485.4,469.8,485.4z M108.6,127.4c-2.5,0-4.4,2-4.5,4.5v346c0,2.5,2,4.5,4.5,4.5h361.2c2.5,0,4.5-2,4.5-4.5v-346
	c0-2.5-2-4.5-4.5-4.5H108.6z"/>
<path id="a412c548-e719-4eea-a05b-cd0e7020a11d" class="st6" d="M224.8,268.1c-3.2,0.1-5.8,2.8-5.8,6c0.1,3.2,2.6,5.8,5.8,5.8h201.9
	c3.2,0.1,5.9-2.6,6-5.8c0.1-3.3-2.5-6-5.8-6l0,0c-0.1,0-0.1,0-0.2,0H224.8z"/>
<path id="b78b0a84-c378-4508-9336-e77aabaafae0" class="st6" d="M224.8,299.1c-3.2,0.1-5.8,2.8-5.8,6c0.1,3.2,2.6,5.8,5.8,5.8h201.9
	c3.2,0.1,5.9-2.6,6-5.8c0.1-3.3-2.5-6-5.8-6c-0.1,0-0.1,0-0.2,0H224.8z"/>
<path id="e32b0e90-8114-4582-9747-2684e16f8e14" class="st6" d="M224.8,330.1c-3.2,0.1-5.8,2.8-5.8,6c0.1,3.2,2.6,5.8,5.8,5.8h201.9
	c3.2,0,5.9-2.6,6-5.9c0-3.3-2.5-6-5.8-6c-0.1,0-0.1,0-0.2,0H224.8z"/>
<path id="b06bb5c2-a5f4-47ff-92f8-77ef735fdd34" class="st6" d="M224.8,361.1c-3.2,0.1-5.8,2.8-5.8,6c0.1,3.2,2.6,5.8,5.8,5.8h201.9
	c3.2,0,5.9-2.6,6-5.9c0-3.3-2.5-6-5.8-6c-0.1,0-0.1,0-0.2,0H224.8z"/>
<path id="b8811759-8962-48e4-84dc-33129b489fa6" class="st6" d="M224.8,392.1c-3.2,0.1-5.8,2.8-5.8,6c0.1,3.2,2.6,5.8,5.8,5.8h201.9
	c3.2,0,5.9-2.6,6-5.9c0-3.3-2.5-6-5.8-6c-0.1,0-0.1,0-0.2,0H224.8z"/>
<path id="b77aa8cf-94af-4633-82e9-cca59aedf566" class="st6" d="M224.8,423.1c-3.2,0.1-5.8,2.8-5.8,6c0.1,3.2,2.6,5.8,5.8,5.8h201.9
	c3.2,0,5.9-2.6,6-5.9c0-3.3-2.5-6-5.8-6c-0.1,0-0.1,0-0.2,0H224.8z"/>
<path class="st7" d="M179.3,177.9c0,13.3-10.6,24-23.7,24s-23.7-10.7-23.7-24s10.6-24,23.7-24c13.1-0.1,23.7,10.6,23.7,23.8
	C179.3,177.8,179.3,177.8,179.3,177.9z"/>
<path id="ebe986c1-6388-4a4d-87c0-ea526f0f496e" class="st7" d="M198.1,159c-3.2,0.1-5.8,2.8-5.8,6c0.1,3.2,2.6,5.8,5.8,5.8h147.5
	c3.2,0,5.9-2.6,6-5.9c0-3.3-2.5-6-5.8-6c-0.1,0-0.1,0-0.2,0H198.1z"/>
<path id="a7d58542-4d48-481b-9cd8-4bec86616530" class="st7" d="M198.1,185c-3.2,0.1-5.8,2.8-5.8,6c0.1,3.2,2.6,5.8,5.8,5.8h242.5
	c3.2,0,5.9-2.6,6-5.9c0-3.3-2.5-6-5.8-6c-0.1,0-0.1,0-0.2,0H198.1z"/>
<path class="st2" d="M186.9,285.1c-6,0-10.9-4.9-10.9-11s4.9-11,10.9-11s10.9,4.9,10.9,11l0,0C197.8,280.2,192.9,285.1,186.9,285.1z
	 M186.9,265.1c-4.9,0-8.9,4-8.9,9s4,9,8.9,9c4.9,0,8.9-4,8.9-9C195.8,269.1,191.8,265.1,186.9,265.1z"/>
<path class="st2" d="M186.9,316.1c-6,0-10.9-4.9-10.9-11s4.9-11,10.9-11s10.9,4.9,10.9,11l0,0C197.8,311.2,192.9,316.1,186.9,316.1z
	 M186.9,296.1c-4.9,0-8.9,4-8.9,9s4,9,8.9,9c4.9,0,8.9-4,8.9-9C195.8,300.1,191.8,296.1,186.9,296.1z"/>
<path class="st2" d="M186.9,347.1c-6,0-10.9-4.9-10.9-11s4.9-11,10.9-11s10.9,4.9,10.9,11l0,0C197.8,342.1,192.9,347,186.9,347.1z
	 M186.9,327.1c-4.9,0-8.9,4-8.9,9s4,9,8.9,9c4.9,0,8.9-4,8.9-9C195.8,331.1,191.8,327.1,186.9,327.1z"/>
<path class="st2" d="M186.9,378.1c-6,0-10.9-4.9-10.9-11s4.9-11,10.9-11s10.9,4.9,10.9,11l0,0C197.8,373.1,192.9,378,186.9,378.1z
	 M186.9,358.1c-4.9,0-8.9,4-8.9,9s4,9,8.9,9c4.9,0,8.9-4,8.9-9C195.8,362.1,191.8,358.1,186.9,358.1z"/>
<path class="st2" d="M186.9,409.1c-6,0-10.9-4.9-10.9-11s4.9-11,10.9-11s10.9,4.9,10.9,11C197.8,404.1,192.9,409,186.9,409.1z
	 M186.9,389.1c-4.9,0-8.9,4-8.9,9s4,9,8.9,9c4.9,0,8.9-4,8.9-9C195.8,393.1,191.8,389.1,186.9,389.1z"/>
<path class="st2" d="M186.9,440.1c-6,0-10.9-4.9-10.9-11s4.9-11,10.9-11s10.9,4.9,10.9,11C197.8,435.1,192.9,440,186.9,440.1z
	 M186.9,420.1c-4.9,0-8.9,4-8.9,9s4,9,8.9,9c4.9,0,8.9-4,8.9-9C195.8,424.1,191.8,420.1,186.9,420.1z"/>
<ellipse class="st4" cx="186.9" cy="274.1" rx="4.9" ry="5"/>
<ellipse class="st4" cx="186.9" cy="336.1" rx="4.9" ry="5"/>
<ellipse class="st4" cx="186.9" cy="367.1" rx="4.9" ry="5"/>
</svg>
